<?xml version="1.0" encoding="utf-8"?>
<!-- Generator: Adobe Illustrator 19.0.0, SVG Export Plug-In . SVG Version: 6.00 Build 0)  -->
<svg version="1.1" id="Layer_1" xmlns="http://www.w3.org/2000/svg" xmlns:xlink="http://www.w3.org/1999/xlink" x="0px" y="0px"
	 viewBox="-717.6 1442.9 381.3 230.7" style="enable-background:new -717.6 1442.9 381.3 230.7;" xml:space="preserve">
<style type="text/css">
	.st0{fill:#FFFFFF;stroke:#FFFFFF;stroke-miterlimit:10;}
	.st1{fill:none;}
	.st2{fill:none;stroke:#FCEE2B;stroke-width:3;stroke-linejoin:round;stroke-miterlimit:10;}
	.st3{fill:none;stroke:#FCEE2B;stroke-width:3;stroke-linecap:round;stroke-linejoin:round;stroke-miterlimit:10;}
	.st4{fill:#FCEE2B;stroke:#FCEE2B;stroke-width:3;stroke-linecap:round;stroke-linejoin:round;stroke-miterlimit:10;}
	.st5{fill:none;stroke:#FCEE2B;stroke-width:3;stroke-miterlimit:10;}
	.st6{fill:#FFFFFF;stroke:#FCEE2B;stroke-width:3;stroke-linecap:round;stroke-linejoin:round;stroke-miterlimit:10;}
	.st7{font-family:'Futura-Medium';}
	.st8{font-size:48px;}
</style>
<polygon id="XMLID_135_" class="st0" points="-459.1,1514.2 -556.1,1556.7 -716,1502.6 -605.4,1467.9 "/>
<path id="XMLID_133_" class="st1" d="M-681.9,1615.3"/>
<line id="XMLID_132_" class="st1" x1="-556.1" y1="1556.7" x2="-556.1" y2="1656"/>
<polygon id="XMLID_131_" class="st0" points="-459.1,1602.7 -556.1,1656 -556.1,1556.7 -459.1,1514.2 "/>
<polygon id="XMLID_130_" class="st1" points="-573.3,1540.9 -637.3,1509.7 -591.4,1499.4 -530.1,1514.2 "/>
<polygon id="XMLID_129_" class="st0" points="-573.3,1483.6 -643.3,1458.1 -602,1443.4 -513.8,1464.1 "/>
<polygon id="XMLID_128_" class="st1" points="-513.8,1464.1 -602,1443.4 -605.4,1497.1 -530.1,1514.2 "/>
<polygon id="XMLID_126_" class="st0" points="-573.3,1540.9 -643.3,1514.2 -643.3,1458.1 -573.3,1483.6 "/>
<polygon id="XMLID_125_" class="st0" points="-513.8,1514.2 -573.3,1540.9 -573.3,1483.6 -513.8,1464.1 "/>
<polygon id="XMLID_124_" class="st0" points="-556.1,1656 -716,1592.2 -716,1502.6 -556.1,1556.7 "/>
<path id="XMLID_137_" class="st2" d="M-543.6,1496.8"/>
<polyline id="XMLID_75_" class="st2" points="-438.2,1530.3 -535.2,1572.8 -695.1,1518.7 -622.4,1496.8 "/>
<path id="XMLID_74_" class="st3" d="M-661,1631.4"/>
<line id="XMLID_73_" class="st3" x1="-535.2" y1="1572.8" x2="-535.2" y2="1672.2"/>
<polygon id="XMLID_72_" class="st4" points="-438.2,1618.8 -535.2,1672.2 -535.2,1572.8 -438.2,1530.3 "/>
<polyline id="XMLID_71_" class="st5" points="-492.9,1530.3 -552.4,1557 -616.4,1525.8 -570.5,1515.7 "/>
<polygon id="XMLID_70_" class="st3" points="-552.4,1499.7 -622.4,1474.2 -581.2,1459.6 -492.9,1480.2 "/>
<polyline id="XMLID_56_" class="st3" points="-492.9,1530.3 -492.9,1480.2 -581.2,1459.6 -584.5,1513.2 "/>
<polygon id="XMLID_42_" class="st6" points="-552.4,1557 -622.4,1530.3 -622.4,1474.2 -552.4,1499.7 "/>
<polygon id="XMLID_41_" class="st4" points="-492.9,1530.3 -552.4,1557 -552.4,1499.7 -492.9,1480.2 "/>
<polygon id="XMLID_40_" class="st6" points="-535.2,1672.2 -695.1,1608.3 -695.1,1518.7 -535.2,1572.8 "/>
<line id="XMLID_136_" class="st2" x1="-438.2" y1="1530.3" x2="-492.9" y2="1512.2"/>
<text id="XMLID_102_" transform="matrix(1 0 0 1 -660.9872 1585.4219)" class="st7 st8">INSTRUCTION</text>
</svg>
