<?xml version="1.0" encoding="utf-8"?>
<!-- Generator: Adobe Illustrator 19.0.0, SVG Export Plug-In . SVG Version: 6.00 Build 0)  -->
<svg version="1.1" id="Layer_1" xmlns="http://www.w3.org/2000/svg" xmlns:xlink="http://www.w3.org/1999/xlink" x="0px" y="0px"
	 viewBox="-672.4 868.8 174.3 324.1" style="enable-background:new -672.4 868.8 174.3 324.1;" xml:space="preserve">
<style type="text/css">
	.st0{fill:#FFFFFF;}
	.st1{fill:none;}
	.st2{fill:#FFFFFF;stroke:#FCEE2B;stroke-width:3;stroke-linecap:round;stroke-linejoin:round;stroke-miterlimit:10;}
	.st3{fill:none;stroke:#FCEE2B;stroke-width:3;stroke-linejoin:round;stroke-miterlimit:10;}
	.st4{fill:none;stroke:#FCEE2B;stroke-width:3;stroke-linecap:round;stroke-linejoin:round;stroke-miterlimit:10;}
	.st5{fill:#FCEE2B;stroke:#FCEE2B;stroke-width:3;stroke-linecap:round;stroke-linejoin:round;stroke-miterlimit:10;}
	.st6{font-family:'Futura-Medium';}
	.st7{font-size:48px;}
</style>
<polygon id="XMLID_72_" class="st0" points="-548.1,912.7 -584.8,927.7 -619,913.3 -581.9,896.8 "/>
<polygon id="XMLID_71_" class="st0" points="-558.5,894.8 -584.9,905.8 -608.4,894.9 -579.2,881.3 "/>
<polygon id="XMLID_70_" class="st0" points="-522.5,955 -586.6,986.5 -648.2,963.3 -575,937.8 "/>
<polygon id="XMLID_69_" class="st0" points="-534.2,931.4 -585.3,955 -583.6,939.5 -551,922.5 "/>
<polygon id="XMLID_68_" class="st0" points="-583.6,939.5 -614.1,928.4 -632,937.8 -585.3,955 "/>
<line id="XMLID_67_" class="st1" x1="-586.6" y1="986.5" x2="-648.2" y2="963.3"/>
<polygon id="XMLID_66_" class="st1" points="-583.4,868.8 -602,877.4 -585.3,884 -567.7,876.4 "/>
<polygon id="XMLID_65_" class="st1" points="-608.4,912.2 -608.4,894.9 -584.9,905.8 -584.9,922.5 "/>
<polyline id="XMLID_64_" class="st1" points="-584.9,922.5 -558.5,911.2 -558.5,894.8 -567.2,889.3 -558.5,894.8 -584.9,905.8 
	-608.4,894.9 -602,892.2 -602,877 -602,892.2 -584.5,900 -567.2,892.2 -567.7,876.4 -585.3,884 -584.5,900 "/>
<polyline id="XMLID_63_" class="st1" points="-608.4,908.8 -619,913.3 -584.8,927.7 -548.1,912.7 -558.5,907.9 -548.1,912.7 "/>
<polyline id="XMLID_62_" class="st1" points="-534.2,931.4 -585.3,955 -632,937.8 "/>
<polyline id="XMLID_61_" class="st1" points="-632,937.8 -619,931.4 -619,913.3 "/>
<polyline id="XMLID_60_" class="st1" points="-548.1,912.7 -546.9,925.5 -546.5,930 -584.6,947.7 -619,934.8 -619,913.3 
	-584.8,927.7 -584.6,947.7 -585.3,955 -586.5,976.2 -534.2,951.7 -534.2,931.4 -585.3,955 -632,937.8 -632.6,958.2 -648.2,963.3 
	-632.6,958.2 -586.5,976.2 -534.2,951.7 -522.5,955 -586.6,986.5 -522.5,955 "/>
<path id="XMLID_59_" class="st1" d="M-534.2,931.4c0,0-12.8-5.4-12.8-5.9"/>
<polygon id="XMLID_58_" class="st0" points="-522.5,1148.3 -586.6,1181.3 -586.6,986.5 -522.5,955 "/>
<polygon id="XMLID_57_" class="st0" points="-586.5,1181.3 -648.2,1155.9 -648.2,963.3 -586.6,986.5 "/>
<polygon id="XMLID_56_" class="st0" points="-534.2,951.7 -586.5,976.2 -585.3,955 -534.2,931.4 "/>
<polygon id="XMLID_55_" class="st0" points="-584.6,947.7 -619,934.8 -619,913.3 -584.8,927.7 "/>
<polygon id="XMLID_54_" class="st0" points="-546.5,930 -584.8,947.7 -584.8,927.7 -548.1,912.7 "/>
<polygon id="XMLID_53_" class="st0" points="-586.5,976.2 -632,958.5 -632,937.8 -585.3,955 "/>
<polygon id="XMLID_52_" class="st0" points="-558.5,911.2 -584.9,922.5 -584.9,905.8 -558.5,894.8 "/>
<polygon id="XMLID_51_" class="st0" points="-584.9,922.5 -608.4,912.7 -608.4,894.9 -584.9,905.8 "/>
<polygon id="XMLID_50_" class="st0" points="-567.2,892.2 -584.5,900 -585.3,884 -567.7,876.4 "/>
<polygon id="XMLID_49_" class="st0" points="-584.5,900 -602,892 -602,877.4 -585.3,884 "/>
<polygon id="XMLID_48_" class="st0" points="-585.3,884 -567.7,876.4 -583.4,868.8 -602,877.4 "/>
<polygon id="XMLID_46_" class="st2" points="-541.3,922.8 -578,937.8 -612.1,923.4 -575,906.9 "/>
<polygon id="XMLID_45_" class="st2" points="-551.6,904.8 -578,915.9 -601.5,905.2 -572.4,891.5 "/>
<polygon id="XMLID_15_" class="st2" points="-515.6,965.2 -579.7,996.7 -641.3,973.4 -568.1,947.8 "/>
<polygon id="XMLID_14_" class="st2" points="-527.3,941.5 -578.5,965.2 -576.7,949.7 -544.1,932.7 "/>
<polygon id="XMLID_11_" class="st2" points="-576.7,949.7 -607.2,938.7 -625.1,947.8 -578.5,965.2 "/>
<line id="XMLID_7_" class="st3" x1="-579.7" y1="996.7" x2="-641.3" y2="973.4"/>
<polygon id="XMLID_127_" class="st3" points="-576.5,878.9 -595.1,887.5 -578.5,894.2 -560.8,886.5 "/>
<polygon id="XMLID_123_" class="st3" points="-601.5,922.2 -601.5,905.2 -578,915.9 -578,932.7 "/>
<polyline id="XMLID_4_" class="st4" points="-578,932.7 -551.6,921.3 -551.6,904.8 -560.3,899.4 -551.6,904.8 -578,915.9 
	-601.5,905.2 -595.1,902.4 -595.1,887.2 -595.1,902.4 -577.6,910.2 -560.3,902.4 -560.8,886.5 -578.5,894.2 -577.6,910.2 "/>
<polyline id="XMLID_5_" class="st4" points="-601.5,918.8 -612.1,923.4 -578,937.8 -541.3,922.8 -551.6,918 -541.3,922.8 "/>
<polyline id="XMLID_2_" class="st4" points="-527.3,941.5 -578.5,965.2 -625.1,947.8 "/>
<polyline id="XMLID_3_" class="st4" points="-625.1,947.8 -612.1,941.5 -612.1,923.4 "/>
<polyline id="XMLID_10_" class="st4" points="-541.3,922.8 -540.1,935.7 -539.6,940.2 -577.7,957.8 -612.1,944.8 -612.1,923.4 
	-578,937.8 -577.7,957.8 -578.5,965.2 -579.6,986.3 -527.3,961.8 -527.3,941.5 -578.5,965.2 -625.1,947.8 -625.7,968.3 
	-641.3,973.4 -625.7,968.3 -579.6,986.3 -527.3,961.8 -515.6,965.2 -579.7,996.7 -515.6,965.2 "/>
<path id="XMLID_6_" class="st4" d="M-527.3,941.5c0,0-12.8-5.4-12.8-5.9"/>
<polygon id="XMLID_1_" class="st5" points="-515.6,1158.4 -579.7,1191.4 -579.7,996.7 -515.6,965.2 "/>
<polygon id="XMLID_8_" class="st2" points="-579.7,1191.4 -641.4,1166 -641.4,973.4 -579.7,996.7 "/>
<polygon id="XMLID_9_" class="st5" points="-527.3,961.8 -579.6,986.3 -578.5,965.2 -527.3,941.5 "/>
<polygon id="XMLID_12_" class="st2" points="-577.7,957.8 -612.1,944.8 -612.1,923.4 -578,937.8 "/>
<polygon id="XMLID_13_" class="st5" points="-539.6,940.2 -578,957.8 -578,937.8 -541.3,922.8 "/>
<polygon id="XMLID_16_" class="st2" points="-579.6,986.3 -625.1,968.8 -625.1,947.8 -578.5,965.2 "/>
<polygon id="XMLID_40_" class="st5" points="-551.6,921.3 -578,932.7 -578,915.9 -551.6,904.8 "/>
<polygon id="XMLID_41_" class="st2" points="-578,932.7 -601.5,922.8 -601.5,905.2 -578,915.9 "/>
<polygon id="XMLID_42_" class="st5" points="-560.3,902.4 -577.6,910.2 -578.5,894.2 -560.8,886.5 "/>
<polygon id="XMLID_43_" class="st2" points="-577.6,910.2 -595.1,902.2 -595.1,887.5 -578.5,894.2 "/>
<polygon id="XMLID_44_" class="st2" points="-578.5,894.2 -560.8,886.5 -576.5,878.9 -595.1,887.5 "/>
<text id="XMLID_134_" transform="matrix(0.9574 -0.2887 0.2887 0.9574 -660.2215 1122.2035)" class="st6 st7">ABOUT</text>
</svg>
