<?xml version="1.0" encoding="utf-8"?>
<!-- Generator: Adobe Illustrator 19.0.0, SVG Export Plug-In . SVG Version: 6.00 Build 0)  -->
<svg version="1.1" id="Layer_1" xmlns="http://www.w3.org/2000/svg" xmlns:xlink="http://www.w3.org/1999/xlink" x="0px" y="0px"
	 viewBox="-843 1351.6 278.2 302.8" style="enable-background:new -843 1351.6 278.2 302.8;" xml:space="preserve">
<style type="text/css">
	.st0{fill:#FFFFFF;stroke:#FFFFFF;stroke-miterlimit:10;}
	.st1{fill:none;stroke:#FCEE2B;stroke-width:3;stroke-linejoin:round;stroke-miterlimit:10;}
	.st2{font-family:'NeutraText-DemiAlt';}
	.st3{font-size:48px;}
	.st4{fill:#FFFFFF;stroke:#FFFFFF;stroke-linecap:square;stroke-miterlimit:10;}
</style>
<polygon id="XMLID_87_" class="st0" points="-691.3,1643.6 -795.8,1606.8 -795.8,1373.2 -689.4,1398.9 "/>
<polygon id="XMLID_80_" class="st0" points="-617,1627.8 -691.4,1653.8 -689.4,1398.9 -617,1367.9 "/>
<polygon id="XMLID_79_" class="st0" points="-617,1367.9 -689.4,1398.9 -795.8,1373.2 -713.5,1352.2 "/>
<polygon id="XMLID_56_" class="st1" points="-674.3,1635.4 -780.7,1601.9 -780.7,1386.3 -674.3,1412.2 "/>
<polygon id="XMLID_42_" class="st1" points="-602,1605.2 -674.3,1635.4 -674.3,1412.2 -602,1381.2 "/>
<polygon id="XMLID_41_" class="st1" points="-602,1381.2 -674.3,1412.2 -780.7,1386.3 -698.4,1365.2 "/>
<text id="XMLID_40_" transform="matrix(0.992 0.1261 -0.1261 0.992 -841.5708 1440.9391)" class="st2 st3">DOWNLOAD</text>
<polygon class="st4" points="-649.6,1622.8 -604,1604.1 -604,1487.9 -649.6,1510.8 "/>
</svg>
