<?xml version="1.0" encoding="utf-8"?>
<!-- Generator: Adobe Illustrator 19.0.0, SVG Export Plug-In . SVG Version: 6.00 Build 0)  -->
<svg version="1.1" id="Layer_1" xmlns="http://www.w3.org/2000/svg" xmlns:xlink="http://www.w3.org/1999/xlink" x="0px" y="0px"
	 viewBox="-341 473.3 158.6 245.2" style="enable-background:new -341 473.3 158.6 245.2;" xml:space="preserve">
<style type="text/css">
	.st0{fill:#FFFFFF;stroke:#FFFFFF;stroke-miterlimit:10;}
	.st1{fill:#FFFFFF;}
	.st2{fill:none;}
	.st3{fill:none;stroke:#FCEE2B;stroke-width:3;stroke-linejoin:round;stroke-miterlimit:10;}
	.st4{fill:none;stroke:#FCEE2B;stroke-width:3;stroke-miterlimit:10;}
	.st5{fill:none;stroke:#FCEE2B;stroke-width:3;stroke-linecap:round;stroke-linejoin:round;stroke-miterlimit:10;}
	.st6{fill:#FFFFFF;stroke:#FCEE2B;stroke-width:3;stroke-linecap:round;stroke-linejoin:round;stroke-miterlimit:10;}
</style>
<polyline id="XMLID_77_" class="st0" points="-341,542.4 -327.2,538.6 -327.2,512.9 -238.5,473.3 -202.5,489.7 -202.5,518.4 
	-195.2,521.3 -290.8,563.9 -341,542.4 "/>
<polyline id="XMLID_76_" class="st1" points="-289.8,555 -289.8,528.7 -327.2,512.9 -327.2,538.6 -289.8,555 -202.5,518.4 
	-202.5,489.7 -289.8,528.7 "/>
<line id="XMLID_75_" class="st2" x1="-195.2" y1="520.9" x2="-195.2" y2="578.2"/>
<polygon id="XMLID_74_" class="st0" points="-294.1,702.2 -195.2,654.2 -195.2,521.3 -290.8,563.9 "/>
<polygon id="XMLID_73_" class="st0" points="-294.1,702.2 -341,682.4 -341,542.4 -290.8,563.9 "/>
<polyline id="XMLID_3_" class="st3" points="-329.7,557.2 -315.8,553.4 -315.8,527.7 -227.1,488.1 -191.2,504.5 -191.2,533.2 
	-183.9,536.1 -279.5,578.7 -329.7,557.2 "/>
<polyline id="XMLID_117_" class="st3" points="-278.4,569.8 -278.4,543.5 -315.8,527.7 -315.8,553.4 -278.4,569.8 -191.2,533.2 
	-191.2,504.5 -278.4,543.5 "/>
<line id="XMLID_113_" class="st4" x1="-183.9" y1="535.7" x2="-183.9" y2="593"/>
<polygon id="XMLID_2_" class="st5" points="-282.8,717 -183.9,669 -183.9,536.1 -279.5,578.7 "/>
<polygon id="XMLID_1_" class="st6" points="-282.8,717 -329.7,697.2 -329.7,557.2 -279.5,578.7 "/>
</svg>
