<?xml version="1.0" encoding="utf-8"?>
<!-- Generator: Adobe Illustrator 19.0.0, SVG Export Plug-In . SVG Version: 6.00 Build 0)  -->
<svg version="1.1" id="Layer_1" xmlns="http://www.w3.org/2000/svg" xmlns:xlink="http://www.w3.org/1999/xlink" x="0px" y="0px"
	 viewBox="-630 967 209.5 225" style="enable-background:new -630 967 209.5 225;" xml:space="preserve">
<style type="text/css">
	.st0{fill:#FFFFFF;stroke:#FFFFFF;stroke-miterlimit:10;}
	.st1{fill:none;stroke:#FFFFFF;stroke-miterlimit:10;}
	.st2{fill:#FFFFFF;stroke:#FAED2A;stroke-width:3;stroke-miterlimit:10;}
	.st3{fill:none;stroke:#FAED2A;stroke-width:3;stroke-miterlimit:10;}
	.st4{fill:none;stroke:#F9ED2E;stroke-width:3.5;stroke-miterlimit:10;}
	.st5{fill:none;stroke:#F9ED2E;stroke-width:3;stroke-miterlimit:10;}
	.st6{fill:none;stroke:#F9ED2E;stroke-width:2.5;stroke-miterlimit:10;}
	.st7{font-family:'Futura-Medium';}
	.st8{font-size:52.998px;}
</style>
<rect id="XMLID_150_" x="-562.3" y="995" class="st0" width="102.3" height="45.8"/>
<path id="XMLID_148_" class="st0" d="M-442.9,1027.6c11.3,4.5,16.8,12.8,16.8,16.2c0,14.4,7.6,36.5-60.4,36.5
	c-51.6,0-145.8,17-126.5-43.2c3.8-11.9,29-22.9,68.5-26.1"/>
<path id="XMLID_149_" class="st0" d="M-630,1116"/>
<path id="XMLID_85_" class="st0" d="M-443.1,1116c0,14.9-18.4,50.5-70,50.5"/>
<line id="XMLID_144_" class="st1" x1="-443.2" y1="1054.8" x2="-443.2" y2="1126.1"/>
<g id="XMLID_138_">
	<path id="XMLID_143_" class="st0" d="M-460,1037.2c0,7.4-12.8,23-40.5,23s-61.8-15.6-61.8-23"/>
	<path id="XMLID_142_" class="st0" d="M-460,995c0,7.4-12.8,23-40.5,23s-61.8-15.6-61.8-23"/>
	<path id="XMLID_141_" class="st0" d="M-460,994.7c0-4-12.8-23-40.5-23s-61.8,15.6-61.8,23"/>
	<line id="XMLID_140_" class="st1" x1="-562.3" y1="1037.2" x2="-562.3" y2="995"/>
	<line id="XMLID_139_" class="st1" x1="-460" y1="995" x2="-460" y2="1037.2"/>
</g>
<rect id="XMLID_21_" x="-545.3" y="1009" class="st2" width="102.3" height="45.8"/>
<polygon id="XMLID_20_" class="st2" points="-426.1,1132.2 -613,1140 -613,1054.8 -426,1065.6 "/>
<path id="XMLID_109_" class="st2" d="M-442.9,1045.3c11.3,4.5,16.8,12.8,16.8,16.2c0,14.4,7.6,36.5-60.4,36.5
	c-51.7,0-126.5-28.3-126.5-43.2c0-12.4,29-22.9,68.5-26.1"/>
<path id="XMLID_108_" class="st2" d="M-426.1,1140c0,14.9-18.4,50.5-70,50.5S-613,1154.9-613,1140"/>
<path id="XMLID_107_" class="st2" d="M-426,1130c0,14.9-18.4,50.5-70,50.5s-116.9-35.6-116.9-50.5"/>
<line id="XMLID_106_" class="st3" x1="-613" y1="1054.8" x2="-613" y2="1140"/>
<line id="XMLID_105_" class="st3" x1="-426.1" y1="1068.6" x2="-426.1" y2="1140"/>
<g id="XMLID_98_">
	<path id="XMLID_104_" class="st2" d="M-442.9,1051.2c0,7.4-12.8,23-40.5,23s-61.8-15.6-61.8-23"/>
	<path id="XMLID_102_" class="st2" d="M-545.3,1008.6c0-7.4,34.2-23,61.8-23s40.5,19,40.5,23v0.4c0,7.4-12.8,23-40.5,23
		s-61.8-15.6-61.8-23"/>
	<line id="XMLID_101_" class="st3" x1="-545.3" y1="1051.2" x2="-545.3" y2="1009"/>
	<line id="XMLID_100_" class="st3" x1="-442.9" y1="1009" x2="-442.9" y2="1051.2"/>
</g>
<line id="XMLID_30_" class="st4" x1="-486.8" y1="967" x2="-486.4" y2="985.7"/>
<line id="XMLID_31_" class="st5" x1="-442.9" y1="1038.9" x2="-421" y2="1046.8"/>
<line class="st6" x1="-607.7" y1="1025.8" x2="-606.7" y2="1045.8"/>
<text id="XMLID_134_" transform="matrix(0.9899 0.1415 -0.1415 0.9899 -581.2214 1141.3495)" class="st7 st8">ABC</text>
</svg>
