<?xml version="1.0" encoding="utf-8"?>
<!-- Generator: Adobe Illustrator 19.0.0, SVG Export Plug-In . SVG Version: 6.00 Build 0)  -->
<svg version="1.1" id="Layer_1" xmlns="http://www.w3.org/2000/svg" xmlns:xlink="http://www.w3.org/1999/xlink" x="0px" y="0px"
	 viewBox="-1567 2866.2 209.5 225" style="enable-background:new -1567 2866.2 209.5 225;" xml:space="preserve">
<style type="text/css">
	.st0{fill:#FFFFFF;stroke:#FFFFFF;stroke-miterlimit:10;}
	.st1{fill:none;stroke:#FFFFFF;stroke-miterlimit:10;}
	.st2{fill:#FFFFFF;stroke:#FAED2A;stroke-width:3;stroke-miterlimit:10;}
	.st3{fill:none;stroke:#FAED2A;stroke-width:3;stroke-miterlimit:10;}
	.st4{fill:none;stroke:#F9ED2E;stroke-width:3.5;stroke-miterlimit:10;}
	.st5{fill:none;stroke:#F9ED2E;stroke-width:3;stroke-miterlimit:10;}
	.st6{fill:none;stroke:#F9ED2E;stroke-width:2.5;stroke-miterlimit:10;}
	.st7{fill:#FAED2A;stroke:#FAED2A;stroke-width:3;stroke-miterlimit:10;}
	.st8{font-family:'NeutraText-DemiAlt';}
	.st9{font-size:52.998px;}
</style>
<rect id="XMLID_150_" x="-1499.3" y="2894.3" class="st0" width="102.3" height="45.8"/>
<path id="XMLID_148_" class="st0" d="M-1379.9,2926.9c11.3,4.5,16.8,12.8,16.8,16.2c0,14.4,7.6,36.5-60.4,36.5
	c-51.6,0-145.8,17-126.5-43.2c3.8-11.9,29-22.9,68.5-26.1"/>
<path id="XMLID_149_" class="st0" d="M-1567,3015.3"/>
<path id="XMLID_85_" class="st0" d="M-1380.1,3015.3c0,14.9-18.4,50.5-70,50.5"/>
<line id="XMLID_144_" class="st1" x1="-1380.2" y1="2954" x2="-1380.2" y2="3025.4"/>
<g id="XMLID_138_">
	<path id="XMLID_143_" class="st0" d="M-1397,2936.5c0,7.4-12.8,23-40.5,23s-61.8-15.6-61.8-23"/>
	<path id="XMLID_142_" class="st0" d="M-1397,2894.3c0,7.4-12.8,23-40.5,23s-61.8-15.6-61.8-23"/>
	<path id="XMLID_141_" class="st0" d="M-1397,2894c0-4-12.8-23-40.5-23s-61.8,15.6-61.8,23"/>
	<line id="XMLID_140_" class="st1" x1="-1499.3" y1="2936.5" x2="-1499.3" y2="2894.3"/>
	<line id="XMLID_139_" class="st1" x1="-1397" y1="2894.3" x2="-1397" y2="2936.5"/>
</g>
<rect id="XMLID_21_" x="-1482.3" y="2908.3" class="st2" width="102.3" height="45.8"/>
<polygon id="XMLID_20_" class="st2" points="-1363.1,3031.5 -1550,3039.3 -1550,2954.1 -1363,2964.9 "/>
<path id="XMLID_109_" class="st2" d="M-1379.9,2944.6c11.3,4.5,16.8,12.8,16.8,16.2c0,14.4,7.6,36.5-60.4,36.5
	c-51.7,0-126.5-28.3-126.5-43.2c0-12.4,29-22.9,68.5-26.1"/>
<path id="XMLID_108_" class="st2" d="M-1363.1,3039.3c0,14.9-18.4,50.5-70,50.5s-116.9-35.6-116.9-50.5"/>
<path id="XMLID_107_" class="st2" d="M-1363,3029.3c0,14.9-18.4,50.5-70,50.5s-116.9-35.6-116.9-50.5"/>
<line id="XMLID_106_" class="st3" x1="-1550" y1="2954.1" x2="-1550" y2="3039.3"/>
<line id="XMLID_105_" class="st3" x1="-1363.1" y1="2967.9" x2="-1363.1" y2="3039.3"/>
<g id="XMLID_98_">
	<path id="XMLID_104_" class="st2" d="M-1379.9,2950.5c0,7.4-12.8,23-40.5,23c-27.7,0-61.8-15.6-61.8-23"/>
	<path id="XMLID_102_" class="st2" d="M-1482.3,2907.9c0-7.4,34.2-23,61.8-23s40.5,19,40.5,23v0.4c0,7.4-12.8,23-40.5,23
		s-61.8-15.6-61.8-23"/>
	<line id="XMLID_101_" class="st3" x1="-1482.3" y1="2950.5" x2="-1482.3" y2="2908.3"/>
	<line id="XMLID_100_" class="st3" x1="-1379.9" y1="2908.3" x2="-1379.9" y2="2950.5"/>
</g>
<line id="XMLID_30_" class="st4" x1="-1423.8" y1="2866.3" x2="-1423.4" y2="2885"/>
<line id="XMLID_31_" class="st5" x1="-1379.9" y1="2938.2" x2="-1358" y2="2946"/>
<line class="st6" x1="-1544.7" y1="2925" x2="-1543.7" y2="2945.1"/>
<path class="st7" d="M-1550,2954.1v79.6c0,0,128.5,106.9,187.2,2.2l-1-58.6C-1363.8,2977.3-1431.2,3033.6-1550,2954.1z"/>
<text id="XMLID_134_" transform="matrix(0.9899 0.1415 -0.1415 0.9899 -1518.2217 3040.5596)" class="st8 st9">ABC</text>
</svg>
