<?xml version="1.0" encoding="utf-8"?>
<!-- Generator: Adobe Illustrator 19.0.0, SVG Export Plug-In . SVG Version: 6.00 Build 0)  -->
<svg version="1.1" id="Layer_1" xmlns="http://www.w3.org/2000/svg" xmlns:xlink="http://www.w3.org/1999/xlink" x="0px" y="0px"
	 viewBox="-284 447.6 272 295.9" style="enable-background:new -284 447.6 272 295.9;" xml:space="preserve">
<style type="text/css">
	.st0{fill:#FFFFFF;}
	.st1{fill:none;stroke:#FCEE2B;stroke-width:4;stroke-linecap:round;stroke-linejoin:round;stroke-miterlimit:10;}
	.st2{fill:none;stroke:#FCEE2B;stroke-width:3;stroke-miterlimit:10;}
	.st3{fill:none;stroke:#FCEE2B;stroke-width:4;stroke-miterlimit:10;}
	.st4{fill:none;stroke:#FCEE2B;stroke-width:5;stroke-miterlimit:10;}
</style>
<polyline id="XMLID_78_" class="st0" points="-149.2,447.6 -282.7,507 -159.2,563.2 -35.6,501.7 -149.2,447.6 -282.7,507 
	-282.7,650.8 -159.2,713.8 -31.1,635 -35.6,501.7 -159.2,563.2 -159.2,713.8 -31.1,635 "/>
<polyline id="XMLID_114_" class="st1" points="-132.1,475.3 -265.5,534.6 -142,590.9 -19.3,529.4 -132.1,475.3 -265.5,534.6 
	-265.5,678.5 -142,741.5 -15,662.7 -19.3,529.4 -142,590.9 -142,741.5 -15,662.7 "/>
<line class="st2" x1="-104.7" y1="462.3" x2="-104.7" y2="489"/>
<line class="st3" x1="-251.4" y1="487" x2="-251.4" y2="529.2"/>
<line class="st4" x1="-283" y1="623.2" x2="-265.5" y2="630.7"/>
</svg>
