<?xml version="1.0" encoding="utf-8"?>
<!-- Generator: Adobe Illustrator 19.0.0, SVG Export Plug-In . SVG Version: 6.00 Build 0)  -->
<svg version="1.1" id="Layer_1" xmlns="http://www.w3.org/2000/svg" xmlns:xlink="http://www.w3.org/1999/xlink" x="0px" y="0px"
	 viewBox="-510.4 1305.4 245.9 355.5" style="enable-background:new -510.4 1305.4 245.9 355.5;" xml:space="preserve">
<style type="text/css">
	.st0{fill:#FFFFFF;}
	.st1{fill:#FFFFFF;stroke:#FFFFFF;stroke-miterlimit:10;}
	.st2{fill:none;stroke:#FFFFFF;stroke-miterlimit:10;}
	.st3{fill:#FFFFFF;stroke:#FFFFFF;stroke-linejoin:bevel;stroke-miterlimit:10;}
	.st4{fill:#FFFFFF;stroke:#FFFFFF;stroke-linejoin:round;stroke-miterlimit:10;}
	.st5{fill:none;stroke:#FCEE2B;stroke-width:3;stroke-linecap:round;stroke-linejoin:round;stroke-miterlimit:10;}
	.st6{fill:#FFFFFF;stroke:#FCEE2B;stroke-width:3;stroke-linecap:round;stroke-linejoin:round;stroke-miterlimit:10;}
	.st7{fill:none;stroke:#FCEE2B;stroke-width:4;stroke-miterlimit:10;}
</style>
<polygon id="XMLID_73_" class="st0" points="-277.9,1599.6 -378.8,1659.4 -382,1450.8 -277.9,1401.8 "/>
<path class="st1" d="M-402,1320.9l-95.1,41.8c-0.1,0.9-0.1,1.9-0.2,2.8c0,0.4-0.1,0.7-0.2,1.1c0.3,1.1,0.3,2.2,0,3.3
	c0.1,0.5,0.1,1,0,1.5c0.5,1.3,0.5,2.7,0,4c0.1,0.5,0.1,1,0,1.4c1.2,1.6,1.3,3.9,0.5,5.6l91.8,49.6l116-54.5L-402,1320.9z"/>
<path class="st1" d="M-497.3,1349.6c0.1,0.8,0,1.6-0.2,2.4c0.1,0.6,0.1,1.3,0,2c0,0.6,0.1,1.1,0.1,1.7c0.1,0.6,0.1,1.2,0.2,1.8
	c0,0.1,0,0.2,0,0.3c0,0.1,0,0.2,0.1,0.4c0,0.1,0,0.2,0,0.3c0.1,0.4,0.2,0.8,0.2,1.2c0,2-0.1,4-0.3,5.9c0,0.4-0.1,0.7-0.2,1.1
	c0.3,1,0.3,2.2,0,3.2c0.1,0.5,0.1,1,0,1.5c0.4,1,0.5,2.2,0.2,3.3l88.9-40.8v-27.6L-497.3,1349.6z"/>
<polygon id="XMLID_120_" class="st1" points="-301.5,1374.7 -408.4,1333.4 -408.4,1306.2 -301.5,1350.3 "/>
<path class="st1" d="M-301.1,1371.2v5.5l-104.6,47.6l-91.2-48.6l0,2.2c0.6,1.4,0.6,3.1,0,4.5l-0.1,8.7l91.8,41l116-54.5
	L-301.1,1371.2z"/>
<polygon class="st1" points="-340.1,1371.9 -459.9,1374 -406,1401.5 "/>
<polygon class="st1" points="-301.5,1354.6 -340.1,1371.9 -301.1,1371.2 "/>
<path class="st1" d="M-497.5,1354.9c0,0.3,0,0.5,0.1,0.8c0.1,0.6,0.1,1.2,0.2,1.8c0,0.1,0,0.2,0,0.3c0,0.1,0,0.2,0.1,0.4
	c0,0.1,0,0.2,0,0.3c0.1,0.4,0.2,0.8,0.2,1.2c0,2-0.1,4-0.3,5.9c0,0.4-0.1,0.7-0.2,1.1c0.3,1,0.3,2.2,0,3.2c0.1,0.5,0.1,1,0,1.5
	c0.5,1.2,0.5,2.7,0,3.9c0,0,0,0,0,0l0.6,0.3l0-1l36.9-0.7L-497.5,1354.9z"/>
<polyline id="XMLID_116_" class="st1" points="-405.2,1396.4 -406,1401.5 -405.7,1424.3 "/>
<line id="XMLID_115_" class="st2" x1="-330.4" y1="1363.3" x2="-408.4" y2="1333.4"/>
<polygon id="XMLID_112_" class="st1" points="-290.4,1574.6 -402,1640.7 -405.2,1432 -289.2,1377.5 "/>
<polygon id="XMLID_110_" class="st1" points="-402,1640.7 -508.9,1588.7 -508.9,1397.1 -405.2,1432 "/>
<path class="st1" d="M-404.9,1401.5l-92.1-38.3l0.2,14.8c0.5,1.2,0.5,2.6,0.1,3.9l0,3.6l92.1,38.8L-404.9,1401.5z"/>
<polygon id="XMLID_97_" class="st3" points="-301.1,1376.7 -405.7,1424.3 -406,1401.5 -301.1,1350.6 "/>
<path class="st1" d="M-497.2,1356.7l0.1,2.4c0,0.2,0,0.3,0,0.5l0.1,1.4l90.9,40.5l0.8-5.1L-497.2,1356.7z"/>
<polygon id="XMLID_93_" class="st4" points="-406,1401.5 -301.1,1350.5 -310.9,1351.6 -405.2,1396.4 "/>
<path class="st1" d="M-497.3,1349.6c0.1,0.8,0,1.6-0.2,2.4c0.1,0.6,0.1,1.3,0,1.9c0,0.1,0,0.3,0,0.4l89.1-44.2v-3.9L-497.3,1349.6z"
	/>
<polygon id="XMLID_90_" class="st3" points="-310.9,1351.6 -408.4,1310.1 -408.4,1306.2 -301.1,1350.6 "/>
<polyline id="XMLID_75_" class="st5" points="-266,1396.2 -382,1450.8 -508.9,1397.1 -385.2,1352.2 "/>
<polygon id="XMLID_74_" class="st6" points="-491.9,1397.1 -385.2,1352.5 -385.2,1324.9 -491.6,1375 "/>
<polyline id="XMLID_88_" class="st5" points="-384.8,1352.1 -384.8,1324.8 -277.9,1368.9 -277.9,1393.4 "/>
<polyline id="XMLID_95_" class="st5" points="-378.8,1659.4 -267.2,1593.3 -266,1396.2 -382,1450.8 -378.8,1659.4 -508.9,1603.6 
	-508.9,1397.1 "/>
<polyline id="XMLID_94_" class="st5" points="-491.6,1390 -508.9,1397.1 -382,1450.8 -266,1396.2 -277.9,1390 -277.9,1395.4 
	-382.5,1443 -491.9,1397.1 -491.6,1375 -382.8,1420.3 -277.9,1369.3 -277.9,1390 "/>
<polyline id="XMLID_92_" class="st5" points="-382,1415.1 -382.8,1420.3 -382.5,1443 "/>
<line id="XMLID_89_" class="st5" x1="-307.2" y1="1382" x2="-385.2" y2="1352.2"/>
<polygon id="XMLID_72_" class="st6" points="-378.8,1659.4 -508.9,1603.8 -508.9,1397.1 -382,1450.8 "/>
<polygon id="XMLID_71_" class="st6" points="-382.5,1443 -491.6,1397.1 -491.6,1375 -382.8,1420.3 "/>
<polygon id="XMLID_70_" class="st5" points="-277.9,1395.4 -382.5,1443 -382.8,1420.3 -277.9,1369.3 "/>
<polygon id="XMLID_56_" class="st6" points="-382,1415.1 -382.8,1420.3 -491.6,1375 -480.5,1375 "/>
<polygon id="XMLID_42_" class="st5" points="-382.8,1420.3 -277.9,1369.3 -287.7,1370.4 -382,1415.1 "/>
<polygon id="XMLID_41_" class="st5" points="-385.2,1324.9 -491.6,1375 -480.5,1375 -385.2,1328.9 "/>
<polygon id="XMLID_40_" class="st5" points="-287.7,1370.4 -385.2,1328.9 -385.2,1324.9 -277.9,1369.3 "/>
<line class="st7" x1="-496.1" y1="1342.3" x2="-496.1" y2="1393.2"/>
<polygon class="st0" points="-307.2,1615.1 -268.6,1592.4 -267.9,1450.8 -314.3,1463.8 "/>
<path class="st0" d="M-465.5,1413.8l17,3.1l-44.3-18.7c0,0,0,0-0.1-0.1c-0.3-0.3-0.5-0.8-0.5-1.4l0.1-3.8l-11.5,4.2L-465.5,1413.8z"
	/>
<polygon class="st0" points="-279.7,1400.9 -297.2,1409.2 -297.9,1406.2 -285.1,1400.5 "/>
</svg>
