<?xml version="1.0" encoding="utf-8"?>
<!-- Generator: Adobe Illustrator 19.0.0, SVG Export Plug-In . SVG Version: 6.00 Build 0)  -->
<svg version="1.1" id="Layer_1" xmlns="http://www.w3.org/2000/svg" xmlns:xlink="http://www.w3.org/1999/xlink" x="0px" y="0px"
	 viewBox="-2416.8 3699.7 167.5 324.1" style="enable-background:new -2416.8 3699.7 167.5 324.1;" xml:space="preserve">
<style type="text/css">
	.st0{fill:#FFFFFF;}
	.st1{fill:none;}
	.st2{fill:#FFFFFF;stroke:#FCEE2B;stroke-width:3;stroke-linecap:round;stroke-linejoin:round;stroke-miterlimit:10;}
	.st3{fill:none;stroke:#FCEE2B;stroke-width:3;stroke-linejoin:round;stroke-miterlimit:10;}
	.st4{fill:none;stroke:#FCEE2B;stroke-width:3;stroke-linecap:round;stroke-linejoin:round;stroke-miterlimit:10;}
	.st5{fill:#FCEE2B;stroke:#FCEE2B;stroke-width:3;stroke-linecap:round;stroke-linejoin:round;stroke-miterlimit:10;}
	.st6{font-family:'NeutraText-DemiAlt';}
	.st7{font-size:48px;}
</style>
<polygon id="XMLID_72_" class="st0" points="-2292.9,3743.6 -2329.6,3758.6 -2363.8,3744.2 -2326.7,3727.7 "/>
<polygon id="XMLID_71_" class="st0" points="-2303.3,3725.7 -2329.7,3736.7 -2353.2,3725.8 -2324,3712.2 "/>
<polygon id="XMLID_70_" class="st0" points="-2267.3,3785.9 -2331.4,3817.4 -2393,3794.2 -2319.8,3768.7 "/>
<polygon id="XMLID_69_" class="st0" points="-2279,3762.3 -2330.1,3785.9 -2328.4,3770.4 -2295.8,3753.4 "/>
<polygon id="XMLID_68_" class="st0" points="-2328.4,3770.4 -2358.9,3759.3 -2376.8,3768.7 -2330.1,3785.9 "/>
<line id="XMLID_67_" class="st1" x1="-2331.4" y1="3817.4" x2="-2393" y2="3794.2"/>
<polygon id="XMLID_66_" class="st1" points="-2328.2,3699.7 -2346.8,3708.3 -2330.1,3714.9 -2312.5,3707.3 "/>
<polygon id="XMLID_65_" class="st1" points="-2353.2,3743.1 -2353.2,3725.8 -2329.7,3736.7 -2329.7,3753.4 "/>
<polyline id="XMLID_64_" class="st1" points="-2329.7,3753.4 -2303.3,3742.1 -2303.3,3725.7 -2312,3720.2 -2303.3,3725.7 
	-2329.7,3736.7 -2353.2,3725.8 -2346.8,3723.1 -2346.8,3707.9 -2346.8,3723.1 -2329.3,3730.9 -2312,3723.1 -2312.5,3707.3 
	-2330.1,3714.9 -2329.3,3730.9 "/>
<polyline id="XMLID_63_" class="st1" points="-2353.2,3739.7 -2363.8,3744.2 -2329.6,3758.6 -2292.9,3743.6 -2303.3,3738.8 
	-2292.9,3743.6 "/>
<polyline id="XMLID_62_" class="st1" points="-2279,3762.3 -2330.1,3785.9 -2376.8,3768.7 "/>
<polyline id="XMLID_61_" class="st1" points="-2388.5,3760.1 -2375.5,3753.7 -2375.5,3735.6 "/>
<polyline id="XMLID_60_" class="st1" points="-2292.9,3743.6 -2291.7,3756.4 -2291.3,3760.9 -2329.4,3778.6 -2363.8,3765.7 
	-2363.8,3744.2 -2329.6,3758.6 -2329.4,3778.6 -2330.1,3785.9 -2331.3,3807.1 -2279,3782.6 -2279,3762.3 -2330.1,3785.9 
	-2376.8,3768.7 -2377.4,3789.1 -2393,3794.2 -2377.4,3789.1 -2331.3,3807.1 -2279,3782.6 -2267.3,3785.9 -2331.4,3817.4 
	-2267.3,3785.9 "/>
<path id="XMLID_59_" class="st1" d="M-2279,3762.3c0,0-12.8-5.4-12.8-5.9"/>
<polygon id="XMLID_58_" class="st0" points="-2267.3,3979.2 -2331.4,4012.2 -2331.4,3817.4 -2267.3,3785.9 "/>
<polygon id="XMLID_57_" class="st0" points="-2331.3,4012.2 -2393,3986.8 -2393,3794.2 -2331.4,3817.4 "/>
<polygon id="XMLID_56_" class="st0" points="-2279,3782.6 -2331.3,3807.1 -2330.1,3785.9 -2279,3762.3 "/>
<polygon id="XMLID_55_" class="st0" points="-2329.4,3778.6 -2363.8,3765.7 -2363.8,3744.2 -2329.6,3758.6 "/>
<polygon id="XMLID_54_" class="st0" points="-2291.3,3760.9 -2329.6,3778.6 -2329.6,3758.6 -2292.9,3743.6 "/>
<polygon id="XMLID_53_" class="st0" points="-2331.3,3807.1 -2376.8,3789.4 -2376.8,3768.7 -2330.1,3785.9 "/>
<polygon id="XMLID_52_" class="st0" points="-2303.3,3742.1 -2329.7,3753.4 -2329.7,3736.7 -2303.3,3725.7 "/>
<polygon id="XMLID_51_" class="st0" points="-2329.7,3753.4 -2353.2,3743.6 -2353.2,3725.8 -2329.7,3736.7 "/>
<polygon id="XMLID_50_" class="st0" points="-2312,3723.1 -2329.3,3730.9 -2330.1,3714.9 -2312.5,3707.3 "/>
<polygon id="XMLID_49_" class="st0" points="-2329.3,3730.9 -2346.8,3722.9 -2346.8,3708.3 -2330.1,3714.9 "/>
<polygon id="XMLID_48_" class="st0" points="-2330.1,3714.9 -2312.5,3707.3 -2328.2,3699.7 -2346.8,3708.3 "/>
<polygon id="XMLID_46_" class="st2" points="-2286.1,3753.7 -2322.8,3768.7 -2356.9,3754.3 -2319.8,3737.8 "/>
<polygon id="XMLID_45_" class="st2" points="-2296.4,3735.7 -2322.8,3746.8 -2346.3,3736.1 -2317.2,3722.4 "/>
<polygon id="XMLID_15_" class="st2" points="-2260.4,3796.1 -2324.5,3827.6 -2386.1,3804.3 -2312.9,3778.7 "/>
<polygon id="XMLID_14_" class="st2" points="-2272.1,3772.4 -2323.3,3796.1 -2321.5,3780.6 -2288.9,3763.6 "/>
<polygon id="XMLID_11_" class="st2" points="-2321.5,3780.6 -2352,3769.6 -2369.9,3778.7 -2323.3,3796.1 "/>
<line id="XMLID_7_" class="st3" x1="-2324.5" y1="3827.6" x2="-2386.1" y2="3804.3"/>
<polygon id="XMLID_127_" class="st3" points="-2321.3,3709.8 -2339.9,3718.4 -2323.3,3725.1 -2305.6,3717.4 "/>
<polygon id="XMLID_123_" class="st3" points="-2346.3,3753.1 -2346.3,3736.1 -2322.8,3746.8 -2322.8,3763.6 "/>
<polyline id="XMLID_4_" class="st4" points="-2322.8,3763.6 -2296.4,3752.2 -2296.4,3735.7 -2305.1,3730.3 -2296.4,3735.7 
	-2322.8,3746.8 -2346.3,3736.1 -2339.9,3733.3 -2339.9,3718.1 -2339.9,3733.3 -2322.4,3741.1 -2305.1,3733.3 -2305.6,3717.4 
	-2323.3,3725.1 -2322.4,3741.1 "/>
<polyline id="XMLID_5_" class="st4" points="-2346.3,3749.7 -2356.9,3754.3 -2322.8,3768.7 -2286.1,3753.7 -2296.4,3748.9 
	-2286.1,3753.7 "/>
<polyline id="XMLID_2_" class="st4" points="-2272.1,3772.4 -2323.3,3796.1 -2369.9,3778.7 "/>
<polyline id="XMLID_3_" class="st4" points="-2369.9,3778.7 -2356.9,3772.4 -2356.9,3754.3 "/>
<polyline id="XMLID_10_" class="st4" points="-2286.1,3753.7 -2284.9,3766.6 -2284.4,3771.1 -2322.5,3788.7 -2356.9,3775.7 
	-2356.9,3754.3 -2322.8,3768.7 -2322.5,3788.7 -2323.3,3796.1 -2324.4,3817.2 -2272.1,3792.7 -2272.1,3772.4 -2323.3,3796.1 
	-2369.9,3778.7 -2370.5,3799.2 -2386.1,3804.3 -2370.5,3799.2 -2324.4,3817.2 -2272.1,3792.7 -2260.4,3796.1 -2324.5,3827.6 
	-2260.4,3796.1 "/>
<path id="XMLID_6_" class="st4" d="M-2272.1,3772.4c0,0-12.8-5.4-12.8-5.9"/>
<polygon id="XMLID_1_" class="st5" points="-2260.4,3989.3 -2324.5,4022.3 -2324.5,3827.6 -2260.4,3796.1 "/>
<polygon id="XMLID_8_" class="st2" points="-2324.5,4022.3 -2386.2,3996.9 -2386.2,3804.3 -2324.5,3827.6 "/>
<polygon id="XMLID_9_" class="st5" points="-2272.1,3792.7 -2324.4,3817.2 -2323.3,3796.1 -2272.1,3772.4 "/>
<polygon id="XMLID_12_" class="st2" points="-2322.5,3788.7 -2356.9,3775.7 -2356.9,3754.3 -2322.8,3768.7 "/>
<polygon id="XMLID_13_" class="st5" points="-2284.4,3771.1 -2322.8,3788.7 -2322.8,3768.7 -2286.1,3753.7 "/>
<polygon id="XMLID_16_" class="st2" points="-2324.4,3817.2 -2369.9,3799.7 -2369.9,3778.7 -2323.3,3796.1 "/>
<polygon id="XMLID_40_" class="st5" points="-2296.4,3752.2 -2322.8,3763.6 -2322.8,3746.8 -2296.4,3735.7 "/>
<polygon id="XMLID_41_" class="st2" points="-2322.8,3763.6 -2346.3,3753.7 -2346.3,3736.1 -2322.8,3746.8 "/>
<polygon id="XMLID_42_" class="st5" points="-2305.1,3733.3 -2322.4,3741.1 -2323.3,3725.1 -2305.6,3717.4 "/>
<polygon id="XMLID_43_" class="st2" points="-2322.4,3741.1 -2339.9,3733.1 -2339.9,3718.4 -2323.3,3725.1 "/>
<polygon id="XMLID_44_" class="st2" points="-2323.3,3725.1 -2305.6,3717.4 -2321.3,3709.8 -2339.9,3718.4 "/>
<text id="XMLID_134_" transform="matrix(0.9574 -0.2887 0.2887 0.9574 -2405.0271 3953.0635)" class="st6 st7">ABOUT</text>
</svg>
