<?xml version="1.0" encoding="utf-8"?>
<!-- Generator: Adobe Illustrator 19.0.0, SVG Export Plug-In . SVG Version: 6.00 Build 0)  -->
<svg version="1.1" id="Layer_1" xmlns="http://www.w3.org/2000/svg" xmlns:xlink="http://www.w3.org/1999/xlink" x="0px" y="0px"
	 viewBox="-315 483.5 209.5 225" style="enable-background:new -315 483.5 209.5 225;" xml:space="preserve">
<style type="text/css">
	.st0{fill:#FFFFFF;stroke:#FFFFFF;stroke-miterlimit:10;}
	.st1{fill:none;stroke:#FFFFFF;stroke-miterlimit:10;}
	.st2{fill:#FFFFFF;stroke:#FAED2A;stroke-width:3;stroke-miterlimit:10;}
	.st3{fill:none;stroke:#FAED2A;stroke-width:3;stroke-miterlimit:10;}
	.st4{fill:none;stroke:#F9ED2E;stroke-width:3.5;stroke-miterlimit:10;}
	.st5{fill:none;stroke:#F9ED2E;stroke-width:3;stroke-miterlimit:10;}
	.st6{fill:none;stroke:#F9ED2E;stroke-width:2.5;stroke-miterlimit:10;}
	.st7{font-family:'NeutraText-DemiAlt';}
	.st8{font-size:53px;}
</style>
<rect id="XMLID_150_" x="-247.3" y="511.5" class="st0" width="102.3" height="45.8"/>
<path id="XMLID_148_" class="st0" d="M-127.9,544.1c11.3,4.5,16.8,12.8,16.8,16.2c0,14.4,7.6,36.5-60.4,36.5
	c-51.6,0-145.8,17-126.5-43.2c3.8-11.9,29-22.9,68.5-26.1"/>
<path id="XMLID_149_" class="st0" d="M-315,632.5"/>
<path id="XMLID_85_" class="st0" d="M-128.1,632.5c0,14.9-18.4,50.5-70,50.5"/>
<line id="XMLID_144_" class="st1" x1="-128.2" y1="571.2" x2="-128.2" y2="642.6"/>
<g id="XMLID_138_">
	<path id="XMLID_143_" class="st0" d="M-145,553.7c0,7.4-12.8,23-40.5,23s-61.8-15.6-61.8-23"/>
	<path id="XMLID_142_" class="st0" d="M-145,511.5c0,7.4-12.8,23-40.5,23s-61.8-15.6-61.8-23"/>
	<path id="XMLID_141_" class="st0" d="M-145,511.2c0-4-12.8-23-40.5-23s-61.8,15.6-61.8,23"/>
	<line id="XMLID_140_" class="st1" x1="-247.3" y1="553.7" x2="-247.3" y2="511.5"/>
	<line id="XMLID_139_" class="st1" x1="-145" y1="511.5" x2="-145" y2="553.7"/>
</g>
<rect id="XMLID_21_" x="-230.3" y="525.5" class="st2" width="102.3" height="45.8"/>
<polygon id="XMLID_20_" class="st2" points="-111.1,648.7 -298,656.5 -298,571.3 -111,582.1 "/>
<path id="XMLID_109_" class="st2" d="M-127.9,561.8c11.3,4.5,16.8,12.8,16.8,16.2c0,14.4,7.6,36.5-60.4,36.5
	c-51.7,0-126.5-28.3-126.5-43.2c0-12.4,29-22.9,68.5-26.1"/>
<path id="XMLID_108_" class="st2" d="M-111.1,656.5c0,14.9-18.4,50.5-70,50.5S-298,671.4-298,656.5"/>
<path id="XMLID_107_" class="st2" d="M-111,646.5c0,14.9-18.4,50.5-70,50.5s-116.9-35.6-116.9-50.5"/>
<line id="XMLID_106_" class="st3" x1="-298" y1="571.3" x2="-298" y2="656.5"/>
<line id="XMLID_105_" class="st3" x1="-111.1" y1="585.1" x2="-111.1" y2="656.5"/>
<g id="XMLID_98_">
	<path id="XMLID_104_" class="st2" d="M-127.9,567.7c0,7.4-12.8,23-40.5,23s-61.8-15.6-61.8-23"/>
	<path id="XMLID_102_" class="st2" d="M-230.3,525.1c0-7.4,34.2-23,61.8-23s40.5,19,40.5,23v0.4c0,7.4-12.8,23-40.5,23
		s-61.8-15.6-61.8-23"/>
	<line id="XMLID_101_" class="st3" x1="-230.3" y1="567.7" x2="-230.3" y2="525.5"/>
	<line id="XMLID_100_" class="st3" x1="-127.9" y1="525.5" x2="-127.9" y2="567.7"/>
</g>
<line id="XMLID_30_" class="st4" x1="-171.8" y1="483.5" x2="-171.4" y2="502.2"/>
<line id="XMLID_31_" class="st5" x1="-127.9" y1="555.4" x2="-106" y2="563.2"/>
<line class="st6" x1="-292.7" y1="542.2" x2="-291.7" y2="562.3"/>
<text id="XMLID_134_" transform="matrix(0.9899 0.1415 -0.1415 0.9899 -266.2218 657.7994)" class="st7 st8">ABC</text>
</svg>
