<?xml version="1.0" encoding="utf-8"?>
<!-- Generator: Adobe Illustrator 19.0.0, SVG Export Plug-In . SVG Version: 6.00 Build 0)  -->
<svg version="1.1" id="Layer_1" xmlns="http://www.w3.org/2000/svg" xmlns:xlink="http://www.w3.org/1999/xlink" x="0px" y="0px"
	 viewBox="0 0 167.5 324.1" style="enable-background:new 0 0 167.5 324.1;" xml:space="preserve">
<style type="text/css">
	.st0{fill:#FFFFFF;}
	.st1{fill:none;}
	.st2{fill:#FFFFFF;stroke:#FCEE2B;stroke-width:3;stroke-linecap:round;stroke-linejoin:round;stroke-miterlimit:10;}
	.st3{fill:none;stroke:#FCEE2B;stroke-width:3;stroke-linejoin:round;stroke-miterlimit:10;}
	.st4{fill:none;stroke:#FCEE2B;stroke-width:3;stroke-linecap:round;stroke-linejoin:round;stroke-miterlimit:10;}
	.st5{font-family:'NeutraText-DemiAlt';}
	.st6{font-size:48px;}
</style>
<polygon id="XMLID_72_" class="st0" points="123.9,43.8 87.2,58.8 53,44.5 90.1,28 "/>
<polygon id="XMLID_71_" class="st0" points="113.5,25.9 87.1,36.9 63.6,26.1 92.8,12.5 "/>
<polygon id="XMLID_70_" class="st0" points="149.5,86.2 85.4,117.7 23.8,94.5 97,68.9 "/>
<polygon id="XMLID_69_" class="st0" points="137.8,62.6 86.7,86.2 88.4,70.7 121,53.7 "/>
<polygon id="XMLID_68_" class="st0" points="88.4,70.7 57.9,59.6 40,68.9 86.7,86.2 "/>
<line id="XMLID_67_" class="st1" x1="85.4" y1="117.7" x2="23.8" y2="94.5"/>
<polygon id="XMLID_66_" class="st1" points="88.6,0 70,8.6 86.7,15.2 104.3,7.6 "/>
<polygon id="XMLID_65_" class="st1" points="63.6,43.3 63.6,26.1 87.1,36.9 87.1,53.7 "/>
<polyline id="XMLID_64_" class="st1" points="87.1,53.7 113.5,42.4 113.5,25.9 104.8,20.5 113.5,25.9 87.1,36.9 63.6,26.1 70,23.4 
	70,8.2 70,23.4 87.5,31.2 104.8,23.4 104.3,7.6 86.7,15.2 87.5,31.2 "/>
<polyline id="XMLID_63_" class="st1" points="63.6,39.9 53,44.5 87.2,58.8 123.9,43.8 113.5,39.1 123.9,43.8 "/>
<polyline id="XMLID_62_" class="st1" points="137.8,62.6 86.7,86.2 40,68.9 "/>
<polyline id="XMLID_61_" class="st1" points="40,68.9 53,62.6 53,44.5 "/>
<polyline id="XMLID_60_" class="st1" points="123.9,43.8 125.1,56.7 125.5,61.2 87.4,78.8 53,65.9 53,44.5 87.2,58.8 87.4,78.8 
	86.7,86.2 85.5,107.4 137.8,82.8 137.8,62.6 86.7,86.2 40,68.9 39.4,89.4 23.8,94.5 39.4,89.4 85.5,107.4 137.8,82.8 149.5,86.2 
	85.4,117.7 149.5,86.2 "/>
<path id="XMLID_59_" class="st1" d="M137.8,62.6c0,0-12.8-5.4-12.8-5.9"/>
<polygon id="XMLID_58_" class="st0" points="149.5,279.5 85.4,312.5 85.4,117.7 149.5,86.2 "/>
<polygon id="XMLID_57_" class="st0" points="85.5,312.5 23.8,287.1 23.8,94.5 85.4,117.7 "/>
<polygon id="XMLID_56_" class="st0" points="137.8,82.8 85.5,107.4 86.7,86.2 137.8,62.6 "/>
<polygon id="XMLID_55_" class="st0" points="87.4,78.8 53,65.9 53,44.5 87.2,58.8 "/>
<polygon id="XMLID_54_" class="st0" points="125.5,61.2 87.2,78.8 87.2,58.8 123.9,43.8 "/>
<polygon id="XMLID_53_" class="st0" points="85.5,107.4 40,89.7 40,68.9 86.7,86.2 "/>
<polygon id="XMLID_52_" class="st0" points="113.5,42.4 87.1,53.7 87.1,36.9 113.5,25.9 "/>
<polygon id="XMLID_51_" class="st0" points="87.1,53.7 63.6,43.8 63.6,26.1 87.1,36.9 "/>
<polygon id="XMLID_50_" class="st0" points="104.8,23.4 87.5,31.2 86.7,15.2 104.3,7.6 "/>
<polygon id="XMLID_49_" class="st0" points="87.5,31.2 70,23.2 70,8.6 86.7,15.2 "/>
<polygon id="XMLID_48_" class="st0" points="86.7,15.2 104.3,7.6 88.6,0 70,8.6 "/>
<polygon id="XMLID_46_" class="st2" points="130.7,53.9 94,69 59.9,54.6 97,38.1 "/>
<polygon id="XMLID_45_" class="st2" points="120.4,36 94,47.1 70.5,36.3 99.6,22.7 "/>
<polygon id="XMLID_15_" class="st2" points="156.4,96.4 92.3,127.8 30.7,104.6 103.9,79 "/>
<polygon id="XMLID_14_" class="st2" points="144.7,72.7 93.5,96.4 95.3,80.8 127.9,63.8 "/>
<polygon id="XMLID_11_" class="st2" points="95.3,80.8 64.8,69.8 46.9,79 93.5,96.4 "/>
<line id="XMLID_7_" class="st3" x1="92.3" y1="127.8" x2="30.7" y2="104.6"/>
<polygon id="XMLID_127_" class="st3" points="95.5,10.1 76.9,18.7 93.5,25.3 111.2,17.7 "/>
<polygon id="XMLID_123_" class="st3" points="70.5,53.4 70.5,36.3 94,47.1 94,63.8 "/>
<polyline id="XMLID_4_" class="st4" points="94,63.8 120.4,52.5 120.4,36 111.7,30.6 120.4,36 94,47.1 70.5,36.3 76.9,33.6 
	76.9,18.3 76.9,33.6 94.4,41.4 111.7,33.6 111.2,17.7 93.5,25.3 94.4,41.4 "/>
<polyline id="XMLID_5_" class="st4" points="70.5,50 59.9,54.6 94,69 130.7,53.9 120.4,49.2 130.7,53.9 "/>
<polyline id="XMLID_2_" class="st4" points="144.7,72.7 93.5,96.4 46.9,79 "/>
<polyline id="XMLID_3_" class="st4" points="46.9,79 59.9,72.7 59.9,54.6 "/>
<polyline id="XMLID_10_" class="st4" points="130.7,53.9 131.9,66.8 132.4,71.3 94.3,89 59.9,76 59.9,54.6 94,69 94.3,89 93.5,96.4 
	92.4,117.5 144.7,92.9 144.7,72.7 93.5,96.4 46.9,79 46.3,99.5 30.7,104.6 46.3,99.5 92.4,117.5 144.7,92.9 156.4,96.4 92.3,127.8 
	156.4,96.4 "/>
<path id="XMLID_6_" class="st4" d="M144.7,72.7c0,0-12.8-5.4-12.8-5.9"/>
<polygon id="XMLID_1_" class="st2" points="156.4,289.6 92.3,322.6 92.3,127.8 156.4,96.4 "/>
<polygon id="XMLID_8_" class="st2" points="92.3,322.6 30.6,297.2 30.6,104.6 92.3,127.8 "/>
<polygon id="XMLID_9_" class="st2" points="144.7,92.9 92.4,117.5 93.5,96.4 144.7,72.7 "/>
<polygon id="XMLID_12_" class="st2" points="94.3,89 59.9,76 59.9,54.6 94,69 "/>
<polygon id="XMLID_13_" class="st2" points="132.4,71.3 94,89 94,69 130.7,53.9 "/>
<polygon id="XMLID_16_" class="st2" points="92.4,117.5 46.9,99.9 46.9,79 93.5,96.4 "/>
<polygon id="XMLID_40_" class="st2" points="120.4,52.5 94,63.8 94,47.1 120.4,36 "/>
<polygon id="XMLID_41_" class="st2" points="94,63.8 70.5,53.9 70.5,36.3 94,47.1 "/>
<polygon id="XMLID_42_" class="st2" points="111.7,33.6 94.4,41.4 93.5,25.3 111.2,17.7 "/>
<polygon id="XMLID_43_" class="st2" points="94.4,41.4 76.9,33.4 76.9,18.7 93.5,25.3 "/>
<polygon id="XMLID_44_" class="st2" points="93.5,25.3 111.2,17.7 95.5,10.1 76.9,18.7 "/>
<text id="XMLID_134_" transform="matrix(0.9574 -0.2887 0.2887 0.9574 11.7786 253.3037)" class="st5 st6">ABOUT</text>
</svg>
