<?xml version="1.0" encoding="utf-8"?>
<!-- Generator: Adobe Illustrator 19.0.0, SVG Export Plug-In . SVG Version: 6.00 Build 0)  -->
<svg version="1.1" id="Layer_1" xmlns="http://www.w3.org/2000/svg" xmlns:xlink="http://www.w3.org/1999/xlink" x="0px" y="0px"
	 viewBox="-479.6 962.1 364.4 230.7" style="enable-background:new -479.6 962.1 364.4 230.7;" xml:space="preserve">
<style type="text/css">
	.st0{fill:#FFFFFF;stroke:#FFFFFF;stroke-miterlimit:10;}
	.st1{fill:none;}
	.st2{fill:none;stroke:#FCEE2B;stroke-width:3;stroke-linejoin:round;stroke-miterlimit:10;}
	.st3{fill:none;stroke:#FCEE2B;stroke-width:3;stroke-linecap:round;stroke-linejoin:round;stroke-miterlimit:10;}
	.st4{fill:#FCEE2B;stroke:#FCEE2B;stroke-width:3;stroke-linecap:round;stroke-linejoin:round;stroke-miterlimit:10;}
	.st5{fill:none;stroke:#FCEE2B;stroke-width:3;stroke-miterlimit:10;}
	.st6{fill:#FFFFFF;stroke:#FCEE2B;stroke-width:3;stroke-linecap:round;stroke-linejoin:round;stroke-miterlimit:10;}
	.st7{font-family:'NeutraText-DemiAlt';}
	.st8{font-size:48px;}
</style>
<polygon id="XMLID_135_" class="st0" points="-221.1,1033.4 -318.1,1075.8 -478,1021.7 -367.4,987.1 "/>
<path id="XMLID_133_" class="st1" d="M-443.9,1134.5"/>
<line id="XMLID_132_" class="st1" x1="-318.1" y1="1075.8" x2="-318.1" y2="1175.2"/>
<polygon id="XMLID_131_" class="st0" points="-221.1,1121.8 -318.1,1175.2 -318.1,1075.8 -221.1,1033.4 "/>
<polygon id="XMLID_130_" class="st1" points="-335.3,1060.1 -399.3,1028.8 -353.4,1018.6 -292.1,1033.4 "/>
<polygon id="XMLID_129_" class="st0" points="-335.3,1002.7 -405.3,977.2 -364,962.6 -275.8,983.2 "/>
<polygon id="XMLID_128_" class="st1" points="-275.8,983.2 -364,962.6 -367.4,1016.2 -292.1,1033.4 "/>
<polygon id="XMLID_126_" class="st0" points="-335.3,1060.1 -405.3,1033.4 -405.3,977.2 -335.3,1002.7 "/>
<polygon id="XMLID_125_" class="st0" points="-275.8,1033.4 -335.3,1060.1 -335.3,1002.7 -275.8,983.2 "/>
<polygon id="XMLID_124_" class="st0" points="-318.1,1175.2 -478,1111.4 -478,1021.7 -318.1,1075.8 "/>
<path id="XMLID_137_" class="st2" d="M-305.6,1015.9"/>
<polyline id="XMLID_75_" class="st2" points="-200.2,1049.5 -297.2,1091.9 -457.1,1037.8 -384.4,1015.9 "/>
<path id="XMLID_74_" class="st3" d="M-423,1150.6"/>
<line id="XMLID_73_" class="st3" x1="-297.2" y1="1091.9" x2="-297.2" y2="1191.3"/>
<polygon id="XMLID_72_" class="st4" points="-200.2,1137.9 -297.2,1191.3 -297.2,1091.9 -200.2,1049.5 "/>
<polyline id="XMLID_71_" class="st5" points="-254.9,1049.5 -314.4,1076.2 -378.4,1044.9 -332.5,1034.8 "/>
<polygon id="XMLID_70_" class="st3" points="-314.4,1018.8 -384.4,993.3 -343.2,978.7 -254.9,999.3 "/>
<polyline id="XMLID_56_" class="st3" points="-254.9,1049.5 -254.9,999.3 -343.2,978.7 -346.5,1032.4 "/>
<polygon id="XMLID_42_" class="st6" points="-314.4,1076.2 -384.4,1049.5 -384.4,993.3 -314.4,1018.8 "/>
<polygon id="XMLID_41_" class="st4" points="-254.9,1049.5 -314.4,1076.2 -314.4,1018.8 -254.9,999.3 "/>
<polygon id="XMLID_40_" class="st6" points="-297.2,1191.3 -457.1,1127.5 -457.1,1037.8 -297.2,1091.9 "/>
<line id="XMLID_136_" class="st2" x1="-200.2" y1="1049.5" x2="-254.9" y2="1031.4"/>
<text id="XMLID_102_" transform="matrix(1 0 0 1 -422.9872 1104.5719)" class="st7 st8">INSTRUCTION</text>
</svg>
