<?xml version="1.0" encoding="utf-8"?>
<!-- Generator: Adobe Illustrator 19.0.0, SVG Export Plug-In . SVG Version: 6.00 Build 0)  -->
<svg version="1.1" id="Layer_1" xmlns="http://www.w3.org/2000/svg" xmlns:xlink="http://www.w3.org/1999/xlink" x="0px" y="0px"
	 viewBox="-1882 3349.8 209.5 225" style="enable-background:new -1882 3349.8 209.5 225;" xml:space="preserve">
<style type="text/css">
	.st0{fill:#FFFFFF;stroke:#FFFFFF;stroke-miterlimit:10;}
	.st1{fill:none;stroke:#FFFFFF;stroke-miterlimit:10;}
	.st2{fill:#FFFFFF;stroke:#FAED2A;stroke-width:3;stroke-miterlimit:10;}
	.st3{fill:none;stroke:#FAED2A;stroke-width:3;stroke-miterlimit:10;}
	.st4{fill:none;stroke:#F9ED2E;stroke-width:3.5;stroke-miterlimit:10;}
	.st5{fill:none;stroke:#F9ED2E;stroke-width:3;stroke-miterlimit:10;}
	.st6{fill:none;stroke:#F9ED2E;stroke-width:2.5;stroke-miterlimit:10;}
	.st7{fill:#FAED2A;stroke:#FAED2A;stroke-width:3;stroke-miterlimit:10;}
	.st8{font-family:'Futura-Medium';}
	.st9{font-size:52.996px;}
</style>
<rect id="XMLID_150_" x="-1814.3" y="3377.8" class="st0" width="102.3" height="45.8"/>
<path id="XMLID_148_" class="st0" d="M-1694.9,3410.4c11.3,4.5,16.8,12.8,16.8,16.2c0,14.4,7.6,36.5-60.4,36.5
	c-51.6,0-145.8,17-126.5-43.2c3.8-11.9,29-22.9,68.5-26.1"/>
<path id="XMLID_149_" class="st0" d="M-1882,3498.8"/>
<path id="XMLID_85_" class="st0" d="M-1695.1,3498.8c0,14.9-18.4,50.5-70,50.5"/>
<line id="XMLID_144_" class="st1" x1="-1695.2" y1="3437.5" x2="-1695.2" y2="3508.9"/>
<g id="XMLID_138_">
	<path id="XMLID_143_" class="st0" d="M-1712,3420c0,7.4-12.8,23-40.5,23s-61.8-15.6-61.8-23"/>
	<path id="XMLID_142_" class="st0" d="M-1712,3377.8c0,7.4-12.8,23-40.5,23s-61.8-15.6-61.8-23"/>
	<path id="XMLID_141_" class="st0" d="M-1712,3377.5c0-4-12.8-23-40.5-23s-61.8,15.6-61.8,23"/>
	<line id="XMLID_140_" class="st1" x1="-1814.3" y1="3420" x2="-1814.3" y2="3377.8"/>
	<line id="XMLID_139_" class="st1" x1="-1712" y1="3377.8" x2="-1712" y2="3420"/>
</g>
<rect id="XMLID_21_" x="-1797.3" y="3391.8" class="st2" width="102.3" height="45.8"/>
<polygon id="XMLID_20_" class="st2" points="-1678.1,3515 -1865,3522.8 -1865,3437.6 -1678,3448.4 "/>
<path id="XMLID_109_" class="st2" d="M-1694.9,3428.1c11.3,4.5,16.8,12.8,16.8,16.2c0,14.4,7.6,36.5-60.4,36.5
	c-51.7,0-126.5-28.3-126.5-43.2c0-12.4,29-22.9,68.5-26.1"/>
<path id="XMLID_108_" class="st2" d="M-1678.1,3522.8c0,14.9-18.4,50.5-70,50.5s-116.9-35.6-116.9-50.5"/>
<path id="XMLID_107_" class="st2" d="M-1678,3512.8c0,14.9-18.4,50.5-70,50.5s-116.9-35.6-116.9-50.5"/>
<line id="XMLID_106_" class="st3" x1="-1865" y1="3437.6" x2="-1865" y2="3522.8"/>
<line id="XMLID_105_" class="st3" x1="-1678.1" y1="3451.4" x2="-1678.1" y2="3522.8"/>
<g id="XMLID_98_">
	<path id="XMLID_104_" class="st2" d="M-1694.9,3434c0,7.4-12.8,23-40.5,23s-61.8-15.6-61.8-23"/>
	<path id="XMLID_102_" class="st2" d="M-1797.3,3391.4c0-7.4,34.2-23,61.8-23s40.5,19,40.5,23v0.4c0,7.4-12.8,23-40.5,23
		s-61.8-15.6-61.8-23"/>
	<line id="XMLID_101_" class="st3" x1="-1797.3" y1="3434" x2="-1797.3" y2="3391.8"/>
	<line id="XMLID_100_" class="st3" x1="-1694.9" y1="3391.8" x2="-1694.9" y2="3434"/>
</g>
<line id="XMLID_30_" class="st4" x1="-1738.8" y1="3349.8" x2="-1738.4" y2="3368.5"/>
<line id="XMLID_31_" class="st5" x1="-1694.9" y1="3421.7" x2="-1673" y2="3429.5"/>
<line class="st6" x1="-1859.7" y1="3408.5" x2="-1858.7" y2="3428.6"/>
<path class="st7" d="M-1865,3437.6v79.6c0,0,128.5,106.9,187.2,2.2l-1-58.6C-1678.8,3460.8-1746.2,3517.1-1865,3437.6z"/>
<text id="XMLID_134_" transform="matrix(0.9899 0.1415 -0.1415 0.9899 -1833.2216 3524.1094)" class="st8 st9">ABC</text>
</svg>
