<?xml version="1.0" encoding="utf-8"?>
<!-- Generator: Adobe Illustrator 19.0.0, SVG Export Plug-In . SVG Version: 6.00 Build 0)  -->
<svg version="1.1" id="Layer_1" xmlns="http://www.w3.org/2000/svg" xmlns:xlink="http://www.w3.org/1999/xlink" x="0px" y="0px"
	 viewBox="-807.4 1723.4 245.9 355.5" style="enable-background:new -807.4 1723.4 245.9 355.5;" xml:space="preserve">
<style type="text/css">
	.st0{fill:#FFFFFF;}
	.st1{fill:#FFFFFF;stroke:#FFFFFF;stroke-miterlimit:10;}
	.st2{fill:none;stroke:#FFFFFF;stroke-miterlimit:10;}
	.st3{fill:#FFFFFF;stroke:#FFFFFF;stroke-linejoin:bevel;stroke-miterlimit:10;}
	.st4{fill:#FFFFFF;stroke:#FFFFFF;stroke-linejoin:round;stroke-miterlimit:10;}
	.st5{fill:none;stroke:#FCEE2B;stroke-width:3;stroke-linecap:round;stroke-linejoin:round;stroke-miterlimit:10;}
	.st6{fill:#FFFFFF;stroke:#FCEE2B;stroke-width:3;stroke-linecap:round;stroke-linejoin:round;stroke-miterlimit:10;}
</style>
<polygon id="XMLID_73_" class="st0" points="-574.9,2017.6 -675.8,2077.4 -679,1868.8 -574.9,1819.8 "/>
<path class="st1" d="M-699,1738.9l-89.1,41.8c-0.1,0.9-0.1,1.9-0.2,2.8c0,0.4-0.1,0.7-0.2,1.1c0.3,1.1,0.3,2.2,0,3.3
	c0.1,0.5,0.1,1,0,1.5c0.5,1.3,0.5,2.7,0,4c0.1,0.5,0.1,1,0,1.4c1.2,1.6,0.3,3.9-0.5,5.6l86.8,49.6l116-54.5L-699,1738.9z"/>
<path class="st1" d="M-791.2,1792.8l85.9-40.8v-27.6l-86,45.3L-791.2,1792.8z"/>
<path class="st1" d="M-794.1,1776.2"/>
<path class="st1" d="M-794.2,1775.5"/>
<polygon id="XMLID_120_" class="st1" points="-598.5,1792.7 -705.4,1751.4 -705.4,1724.2 -598.5,1768.3 "/>
<path class="st1" d="M-598.1,1789.2v5.5l-104.6,47.6l-85.2-48.6v2.2c0.6,1.4,0.6,3.1,0,4.5l-0.1,8.7l85.8,41l116-54.5L-598.1,1789.2
	z"/>
<polygon class="st1" points="-637.1,1789.9 -756.9,1792 -703,1819.5 "/>
<polygon class="st1" points="-598.5,1772.6 -637.1,1789.9 -598.1,1789.2 "/>
<path class="st1" d="M-789.8,1792.7l32.9-0.7l-32.6-19L-789.8,1792.7z"/>
<path class="st1" d="M-794.4,1793.4"/>
<path class="st1" d="M-794.1,1776.6"/>
<path class="st1" d="M-794.2,1775.9"/>
<polyline id="XMLID_116_" class="st1" points="-702.2,1814.4 -703,1819.5 -702.7,1842.3 "/>
<line id="XMLID_115_" class="st2" x1="-627.4" y1="1781.3" x2="-705.4" y2="1751.4"/>
<polygon id="XMLID_112_" class="st1" points="-587.4,1992.6 -699,2058.7 -702.2,1850 -586.2,1795.5 "/>
<polygon id="XMLID_110_" class="st1" points="-699,2058.7 -805.9,2006.7 -805.9,1815.1 -702.2,1850 "/>
<path class="st1" d="M-792,1808.6l90.4,33.7l-0.3-22.8l-89.1-38.3L-792,1808.6z"/>
<polygon id="XMLID_97_" class="st3" points="-598.1,1794.7 -702.7,1842.3 -703,1819.5 -598.1,1768.6 "/>
<path class="st1" d="M-703.1,1819.5l0.8-5.1"/>
<polygon id="XMLID_93_" class="st4" points="-703,1819.5 -598.1,1768.5 -607.9,1769.6 -702.2,1814.4 "/>
<path class="st1" d="M-790.5,1770c0.1,0.6,0.1,1.3,0,1.9c0,0.1,0,0.3,0,0.4l85.1-44.2v-3.9C-705.4,1724.2-790.3,1769.2-790.5,1770z"
	/>
<polygon id="XMLID_90_" class="st3" points="-607.9,1769.6 -705.4,1728.1 -705.4,1724.2 -598.1,1768.6 "/>
<polyline id="XMLID_75_" class="st5" points="-563,1814.2 -679,1868.8 -805.9,1815.1 -682.2,1770.2 "/>
<polygon id="XMLID_74_" class="st6" points="-788.9,1815.1 -682.2,1770.5 -682.2,1742.9 -788.6,1793 "/>
<polyline id="XMLID_88_" class="st5" points="-681.8,1770.1 -681.8,1742.8 -574.9,1786.9 -574.9,1811.4 "/>
<polyline id="XMLID_95_" class="st5" points="-675.8,2077.4 -564.2,2011.3 -563,1814.2 -679,1868.8 -675.8,2077.4 -805.9,2021.6 
	-805.9,1815.1 "/>
<polyline id="XMLID_94_" class="st5" points="-788.6,1808 -805.9,1815.1 -679,1868.8 -563,1814.2 -574.9,1808 -574.9,1813.4 
	-679.5,1861 -788.9,1815.1 -788.6,1793 -679.8,1838.3 -574.9,1787.3 -574.9,1808 "/>
<polyline id="XMLID_92_" class="st5" points="-679,1833.1 -679.8,1838.3 -679.5,1861 "/>
<line id="XMLID_89_" class="st5" x1="-604.2" y1="1800" x2="-682.2" y2="1770.2"/>
<polygon id="XMLID_72_" class="st6" points="-675.8,2077.4 -805.9,2021.8 -805.9,1815.1 -679,1868.8 "/>
<polygon id="XMLID_71_" class="st6" points="-679.5,1861 -788.6,1815.1 -788.6,1793 -679.8,1838.3 "/>
<polygon id="XMLID_70_" class="st5" points="-574.9,1813.4 -679.5,1861 -679.8,1838.3 -574.9,1787.3 "/>
<polygon id="XMLID_56_" class="st6" points="-679,1833.1 -679.8,1838.3 -788.6,1793 -777.5,1793 "/>
<polygon id="XMLID_42_" class="st5" points="-679.8,1838.3 -574.9,1787.3 -584.7,1788.4 -679,1833.1 "/>
<polygon id="XMLID_41_" class="st5" points="-682.2,1742.9 -788.6,1793 -777.5,1793 -682.2,1746.9 "/>
<polygon id="XMLID_40_" class="st5" points="-584.7,1788.4 -682.2,1746.9 -682.2,1742.9 -574.9,1787.3 "/>
<polygon class="st0" points="-604.2,2033.1 -565.6,2010.4 -564.9,1868.8 -611.3,1881.8 "/>
<path class="st0" d="M-762.5,1831.8l17,3.1l-44.3-18.7c0,0,0,0-0.1-0.1c-0.3-0.3-0.5-0.8-0.5-1.4l0.1-3.8l-11.5,4.2L-762.5,1831.8z"
	/>
<polygon class="st0" points="-576.7,1818.9 -594.2,1827.2 -594.9,1824.2 -582.1,1818.5 "/>
</svg>
