<?xml version="1.0" encoding="utf-8"?>
<!-- Generator: Adobe Illustrator 19.0.0, SVG Export Plug-In . SVG Version: 6.00 Build 0)  -->
<svg version="1.1" id="Layer_1" xmlns="http://www.w3.org/2000/svg" xmlns:xlink="http://www.w3.org/1999/xlink" x="0px" y="0px"
	 viewBox="128 310.5 1098 571" style="enable-background:new 128 310.5 1098 571;" xml:space="preserve">
<g>
	<path d="M323.7,676.9c2.8,0.1,15,0.3,18.6,0.3c-1.5,2.5-2.6,4.8-4.1,6.8c-6.9,9.2-16.5,14-27.5,16.1c-4,0.8-8.1,1-12.2,1.1
		c-9.1,0.2-18.1,0-27.6,0c0-3.5,0-6.6,0-9.9c-11.7,0-23.1,0-34.8,0c0-4.7,0-9.2,0-14c9.5,0,19.1,0,28.7,0c0-27.7,0-55.2,0-82.9
		c-3.2,0-6.4,0-9.7,0c0-5.1,0-10,0-15c0.5,0,0.9-0.1,1.3-0.1c13.5,0,27-0.2,40.5,0.2c11.6,0.3,22.2,4.2,31,12.1
		c13.2,11.9,13.6,33,0.8,46.4c-6.6,6.8-14.6,10.3-24.1,10.3c-11.1,0-22.1,0-33.4,0c0,9.7,0,19.2,0,29c4.9,0,9.7,0,14.8,0
		c0,3.1,0,5.9,0,9c11.9,0,23.9,1.7,34.2-5.5 M271.1,633c0.5,0.1,0.9,0.1,1.2,0.1c10.9,0,21.8,0,32.7,0c1.2,0,2.3-0.2,3.5-0.4
		c6.7-1.5,11.2-5.7,13.4-12.1c2.2-6.4,1.7-12.5-3.4-17.6c-4.2-4.3-9.6-6.6-15.4-7.8c-10.5-2-21.1-0.8-31.6-1c-0.1,0-0.2,0.2-0.4,0.3
		C271.1,607.3,271.1,620,271.1,633z"/>
</g>
<g>
	<path d="M429.6,393.8c5.5,0,10.6,0,15.7,0c0.1,0.3,0.2,0.5,0.2,0.8c0,27.2,0.4,54.3-0.2,81.5c-0.4,19.7-14.6,35.9-33.7,41.1
		c-0.6,0.2-1.1,0.2-2,0.3c0-5,0-9.9,0.1-14.7c0-0.4,0.7-1,1.3-1.2c12.6-5.8,18.7-15.7,18.7-29.5c0-25,0-50,0-75
		C429.6,396,429.6,395,429.6,393.8z"/>
	<path d="M329.7,438.8c0-5.2,0-10,0-15c16.6,0,33,0,49.7,0c0,4.8,0,9.7,0,14.8c-3.5,0-7,0-10.7,0c0,16.8,0,33.3,0,50.2
		c5.5-0.1,3.9,0.3,7.8,3.9c3.4,3.9,6.9,6.6,11.4,8.6c0.7,0.3,1.5,1.2,1.5,1.8c0.1,4.7,0.1,9.5,0.1,14.2c-14.8-2.5-29-15.1-33-28.6
		c1.9,0,3.8,0,5.8,0c0-16.7,0-33.3,0-50.1C351.6,438.8,340.8,438.8,329.7,438.8z"/>
</g>
<g>
	<path d="M482.5,694.6c7,0,13.7,0,20.7,0c0,5,0,9.8,0,14.8c-16.5,0-33,0-49.7,0c0-4.9,0-9.7,0-14.8c7.5,0,15,0,22.7,0
		c0-31.8,0-63.3,0-95c-3.2,0-6.3,0-9.7,0c0-5,0-9.9,0-14.9c16.5,0,33,0,49.7,0c0,4.9,0,9.7,0,14.8c-11.2,0-22.4,0-33.7,0
		C482.5,631.3,482.5,662.8,482.5,694.6z"/>
</g>
<g>
	<path d="M852,694.6c7,0,13.7,0,20.7,0c0,5,0,9.8,0,14.8c-16.5,0-33,0-49.7,0c0-4.9,0-9.7,0-14.8c7.5,0,15,0,22.7,0
		c0-31.8,0-63.3,0-95c-3.2,0-6.3,0-9.7,0c0-5,0-9.9,0-14.9c16.5,0,33,0,49.7,0c0,4.9,0,9.7,0,14.8c-11.2,0-22.4,0-33.7,0
		C852,631.3,852,662.8,852,694.6z"/>
</g>
<g>
	<path d="M746.7,583.3c0-4.8,0-9.6,0-14.7c1.9,0,3.8,0,5.8,0c0-8.4,0-16.5,0-24.9c-12.2,0-24.4,0-36.7,0c0-5.1,0-10,0-15
		c16.6,0,33,0,49.7,0c0,4.8,0,9.7,0,14.8c-2.2,0-4.4,0-6.7,0c0,8.4,0,16.5,0,24.7c16.9,1.6,42.4-11,47.2-38.8
		c4.7-27.3-13.8-53.6-44.3-55.9c0-2.4,0-4.9,0-7.4c0-2.4,0-4.8,0-7.6c21,1.4,37.9,10,49.3,27.4c14.1,21.6,15,44.6,2.1,66.8
		C798.3,577.9,774.7,585.7,746.7,583.3z"/>
</g>
<g>
	<path d="M1069.9,669c0-20.5,0-40.2,0-60.1c-1.9,0-3.7,0-5.7,0c0-4.7,0-9.2,0-13.9c16.5,0,33,0,49.7,0c0,4.5,0,9,0,13.7
		c-12.5,0-25,0-37.9,0c0,23.9,0,47.4,0,71.1c-4.7,0-9.1,0.1-13.4-0.1c-2.6,0.1-0.9,0-2.5-1.8c-10.5-18-20.8-36-31.2-54
		c-8.7-15.1-17.5-30.3-26.2-45.4c-0.4-0.6-0.8-1.2-1.5-2.4c0,34.3,0,67.9,0,101.6c-5.1,0-9.9,0-14.8,0c0-40.9,0-81.7,0-122.9
		c5.7,0,11.3-0.1,16.9,0.1c0.7,0,1.5,1.1,1.9,1.9c12.3,21.2,24.6,42.5,36.9,63.8c8.8,15.3,17.6,30.6,26.5,45.8
		C1068.7,667.1,1069.1,667.8,1069.9,669z"/>
</g>
<g>
	<path d="M1049.3,463.1c5.4,0,10.7,0,15.7,0c1.7,4,3.1,8,5.2,11.6c8,13.9,19.7,22.1,36.3,21.1c14.3-0.9,25.4-7.9,33.2-19.8
		c2.3-3.7,1-3.1,3.7-3.1c1.2,0.1,2.6,0,3.1,0c0-8.2,0-16.4,0-24.8c-2.5,0-5,0-7.7,0c0-5,0-9.9,0-14.9c16.5,0,33,0,49.7,0
		c0,4.9,0,9.7,0,14.7c-11.8,0-23.7,0-35.7,0c0,8.5,0,16.7,0,25c0.7,0.1,1.4,0.1,2.2,0.2c-5.4,17.7-24.9,38.1-51.6,37.9
		C1074.8,510.8,1053.7,487.8,1049.3,463.1z"/>
	<path d="M1050,433.1c5.8-25.5,28.9-45.5,53.6-44.8c0,4.8,0,9.6,0,14.4c-2.9,0.5-5.9,0.7-8.7,1.5c-13.7,3.9-22.8,14.4-28,27.3
		c-0.8,2,0.2,1.7-3.4,1.6C1059,432.9,1054.6,433.1,1050,433.1z"/>
</g>
<g>
	<path d="M571.2,488.6c-12.3,0-24.4,0-36.7,0c0-4.6,0-9.1,0-13.8c16.5,0,33,0,49.7,0c0,4.5,0,9,0,13.8c-2.2,0-4.4,0-6.7,0
		c0,24.7,0,49.2,0,74c15.5,0,31,0,46.7,0c0,5.1,0,9.9,0,14.9c-20.9,0-41.7,0-62.7,0c0-4.9,0-9.7,0-14.8c3.2,0,6.4,0,9.7,0
		C571.2,538,571.2,513.5,571.2,488.6z"/>
</g>
</svg>
